<svg xmlns="http://www.w3.org/2000/svg" viewBox="0 0 100 25"><path fill="#003764" d="M11.4 19.3h2V5.7h-2v13.6zM15.4 19.3h2V5.7h-2v13.6zM19.4 19.3h2V5.7h-2v13.6zM23.3 19.3h2V5.7h-2v13.6zM0 21.3h2v-2H0v2zm0-4h2v-2H0v2zm0-4h2v-2H0v2zm0-4h2v-2H0v2zm0-4h2V5.3H0v2zM4 21.3h2v-2H4v2zm0-4h2v-2H4v2zm0-4h2v-2H4v2zm0-4h2v-2H4v2zm0-4h2V5.3H4v2zM8 21.3h2v-2H8v2zm0-4h2v-2H8v2zm0-4h2v-2H8v2zm0-4h2v-2H8v2zm0-4h2V5.3H8v2zM27.3 21.3h2v-2h-2v2zm0-4h2v-2h-2v2zm0-4h2v-2h-2v2zm0-4h2v-2h-2v2zm0-4h2V5.3h-2v2zM31.3 21.3h2v-2h-2v2zm0-4h2v-2h-2v2zm0-4h2v-2h-2v2zm0-4h2v-2h-2v2zm0-4h2V5.3h-2v2zM35.3 21.3h2v-2h-2v2zm0-4h2v-2h-2v2zm0-4h2v-2h-2v2zm0-4h2v-2h-2v2zm0-4h2V5.3h-2v2zM39.3 21.3h2v-2h-2v2zm0-4h2v-2h-2v2zm0-4h2v-2h-2v2zm0-4h2v-2h-2v2zm0-4h2V5.3h-2v2z"/><path fill="#af0328" d="M50.4 19.7c-4.4 0-8-3.6-8-8s3.6-8 8-8 8 3.6 8 8-3.6 8-8 8zm0-14c-3.3 0-6 2.7-6 6s2.7 6 6 6 6-2.7 6-6-2.7-6-6-6z"/><path fill="#003764" d="M60.1 18.5c-.8 0-1.5-.7-1.5-1.5V7.2c0-.8.7-1.5 1.5-1.5h8.9c.8 0 1.5.7 1.5 1.5v1.2c0 .8-.7 1.5-1.5 1.5h-5.9v1.4h5.1c.8 0 1.5.7 1.5 1.5v1.2c0 .8-.7 1.5-1.5 1.5h-5.1v1.4h6c.8 0 1.5.7 1.5 1.5v1.2c0 .8-.7 1.5-1.5 1.5H60.1zm21.4-12.8h-7.4c-.8 0-1.5-.7-1.5-1.5V3c0-.8.7-1.5 1.5-1.5h16.7c.8 0 1.5.7 1.5 1.5v1.2c0 .8-.7 1.5-1.5 1.5h-6.2v12.8h-3.1V5.7zM99.2 11.7c-.8 0-1.5-.7-1.5-1.5s.7-1.5 1.5-1.5c.8 0 1.5.7 1.5 1.5s-.7 1.5-1.5 1.5z"/></svg>