<svg xmlns="http://www.w3.org/2000/svg" xmlns:xlink="http://www.w3.org/1999/xlink" viewBox="0 0 262 67"><defs><path id="a" d="M2.5 63.8c-1 0-1.8-.8-1.8-1.8V5c0-1 .8-1.8 1.8-1.8h257c1 0 1.8.8 1.8 1.8v57c0 1-.8 1.8-1.8 1.8H2.5z"/><path id="c" d="M12.9 56.6V10.2h11.2v35.2h20.8v11.2H12.9zm56.8 0l22.3-26.1-22.3-20.3h14.2l15.2 18.2L116.5 10.2h14.2L108.4 34l22.3 22.6h-14.2l-15.2-18.2-15.2 18.2H69.7zm88.8 0V10.2h41.4v11.2h-30.2v8.1h28.2v11.2h-28.2v4.7h30.2v11.2H158.5zm50.6 0V10.2h13.2c12.2 0 20.3 7.5 20.3 19.3S234.5 48.8 223 48.8h-13.9v7.8h-11.2v-7.8zm11.2-11.2h2.7c6.2 0 9.2-3.2 9.2-8.1s-3-8.1-9.2-8.1h-2.7v16.2z"/></defs><use fill="#fff" xlink:href="#a"/><g fill="#002a8d"><use xlink:href="#c"/></g></svg>