<svg xmlns="http://www.w3.org/2000/svg" viewBox="0 0 128.3 29.1"><path fill="#0079c1" d="M128.3 11.2c0-4.6-3.2-6.5-7.7-6.5-2.7 0-5.3.8-5.3 4.2 0 2.4 2.1 3.2 4.1 3.2h.7c.3-3.2 2.7-3.9 4.1-3.9 2.2 0 3.2 1.3 3.2 3.1v17.9h.9V11.2zM57.6 20.4c0-2.3-1.6-3.3-3.3-3.3s-3.3 1-3.3 3.3c0 2.3 1.6 3.3 3.3 3.3s3.3-1 3.3-3.3zm-3.3-16.7c-5.7 0-10.4 4.5-10.4 10.1s4.7 10.1 10.4 10.1 10.4-4.5 10.4-10.1-4.7-10.1-10.4-10.1zm0 16.9c-3.8 0-6.9-3-6.9-6.8s3.1-6.8 6.9-6.8 6.9 3 6.9 6.8c0 3.7-3.1 6.8-6.9 6.8zM24 13.9c-3.8 0-6.9 3-6.9 6.8s3.1 6.8 6.9 6.8 6.9-3 6.9-6.8-3.1-6.8-6.9-6.8zm0 10.1c-1.9 0-3.4-1.5-3.4-3.3s1.5-3.3 3.4-3.3 3.4 1.5 3.4 3.3-1.5 3.3-3.4 3.3zm-24 .2h.9V.2H0v24h.9v-9.7zM35.6.2h-1v28.9h1V.2zM70 .2h-1v28.9h1V.2zM80.2 13.9c-3.8 0-6.9 3-6.9 6.8s3.1 6.8 6.9 6.8 6.9-3 6.9-6.8-3.1-6.8-6.9-6.8zm0 10.1c-1.9 0-3.4-1.5-3.4-3.3s1.5-3.3 3.4-3.3 3.4 1.5 3.4 3.3-1.5 3.3-3.4 3.3zM99.3 20.4c0-2.3-1.6-3.3-3.3-3.3s-3.3 1-3.3 3.3c0 2.3 1.6 3.3 3.3 3.3s3.3-1 3.3-3.3zm-3.3-16.7c-5.7 0-10.4 4.5-10.4 10.1s4.7 10.1 10.4 10.1 10.4-4.5 10.4-10.1-4.7-10.1-10.4-10.1zm0 16.9c-3.8 0-6.9-3-6.9-6.8s3.1-6.8 6.9-6.8 6.9 3 6.9 6.8c0 3.7-3.1 6.8-6.9 6.8zM114.7 8.3c-2-1.9-4.8-3-7.6-3-5.2 0-9.4 4.3-9.4 9.4s4.2 9.4 9.4 9.4c3.4 0 6.5-1.9 8.3-4.9l-.7-.5c-1.7 2.6-4.5 4.3-7.5 4.3-4.7 0-8.5-3.8-8.5-8.3s3.8-8.3 8.5-8.3c2.6 0 5 1.2 6.6 3.1l.6-.6zM39.6.2h10.3v.9H40.5v12.9h8.7v.9h-8.7v14.2H39.6V.2z" class="color-13-blue-600-svg-fill-0-29"/></svg>