<svg xmlns="http://www.w3.org/2000/svg" viewBox="0 0 496 100"><style>.st0{fill:#ea1b25}</style><path class="st0" d="M129.2 38.4h11.9V26h-11.9v12.4zm11.9 40.5V66.4h-11.9v12.5h11.9zm-26-44.1c-1.3-4.3-5-7.3-9.5-7.3h-16.4v30h15.9c4.9 0 8.8-3.3 9.7-8h-9.8c-.4 1.7-2 2.9-4.7 2.9h-1.3V31.5h1.2c2.6 0 4.2 1.2 4.6 2.8h9.9zM72.9 66.4H56.5v12.5h16.4c6.9 0 12.5-5.6 12.5-12.5v-13h-22.3v-.1h22.3V39.9H56.5v12.5h16.4c.5 0 .9.4.9.9s-.4.9-.9.9z"/><path d="M152.1 48.2c0-5.7-4.2-10.4-10.7-10.4h-22.9v20.8h22.9c6.5.1 10.7-4.6 10.7-10.4zm-10.8 1.4c-1.1 1.7-2.9 2.8-5.7 2.8h-6.5V44.2h6.5c2.8 0 4.6 1.1 5.7 2.8v2.6zM207.2 58.6c-4.4 4.3-10.3 6.9-17.1 6.9h-21V32.7h21.4c6.6 0 12.5 2.5 16.7 6.6v19.3h.1zM216 78.9v-5.2c-3.1 3.5-7.6 5.6-12.7 5.6-10 0-17.4-7.9-17.4-18.4 0-10.5 7.4-18.4 17.4-18.4 5.1 0 9.6 2.1 12.7 5.6v-4.8h11.2v34.8h-11.2zM280.9 42.9c-4.5-4.2-10.3-6.6-17-6.6h-16.7v30h11.2V54.1h3.9l10.3 12.1h13.9l-11.9-13.6c5.5-1.5 9.5-6.3 9.5-12.2v-1.5zM258.4 49.3V44h5.3c3.2 0 4.8 1.8 4.8 3.9 0 2.3-1.8 3.7-4.9 3.7l-5.2-.3zM337.9 42.9c-4.4-4.2-10.3-6.6-17-6.6h-21.4v30h11.2V44h10.3c5.4.1 8.7 3.2 8.7 7.3v14.9h11.2V49.8c-.1-5.3-3-9.5-7-11.5l7.3-11.6h-13.6l-6 9.2zM368.5 66.2h-11.2V32.7h11.2v33.5zM412.3 42.9c-4.5-4.2-10.3-6.6-17-6.6h-16.7v30h11.2V54.1h3.9l10.3 12.1h13.9l-11.9-13.6c5.5-1.5 9.5-6.3 9.5-12.2v-1.5zM390.8 49.3V44h5.3c3.2 0 4.8 1.8 4.8 3.9 0 2.3-1.8 3.7-4.9 3.7l-5.2-.3zM448.9 57.5c-3.3 2.9-7.5 4.6-12.1 4.6-9.7 0-16.8-7.5-16.8-17.7 0-10.2 7.1-17.7 16.8-17.7 4.6 0 8.8 1.7 12.1 4.6l-4.2 8.3c-1.8-1.6-3.8-2.5-6.3-2.5-3.8 0-6.4 3.1-6.4 7.3s2.6 7.3 6.4 7.3c2.5 0 4.5-.9 6.3-2.5l4.2 8.3zM484.2 58.7c-4.3 4.2-10.2 6.8-17.2 6.8h-11.8c-1.6 0-2.3-.7-2.3-1.9v-27c0-1.2.7-1.9 2.3-1.9h11.8c7 0 12.8 2.6 17.2 6.8v17.2zm11.2 5.5V32.7h-11.2c-5.1 0-9.6-2.1-12.7-5.6v-4.8H458v34.8h11.2v-5.2c3.1 3.5 7.6 5.6 12.7 5.6 10 0 17.4-7.9 17.4-18.4.1-3.6-1-7-2.8-9.9h.1c4.5 2.5 7.4 7.1 7.4 12.4v10.7z"/><path class="st0" d="M37.8 59.2c-7.9 0-14-6.3-14-14s6.1-14 14-14c4.3 0 8.2 2 10.9 5.2l-6.7 5.3c-1.3-1.8-3.3-2.9-5.6-2.9-3.9 0-6.9 3.2-6.9 7.1s3 7.1 6.9 7.1c2.3 0 4.2-1.1 5.6-2.9l6.7 5.3c-2.7 3.2-6.6 5.8-10.9 5.8zM39 31.1C28 31.1 19 40.1 19 51.1S28 71.2 39 71.2c11 0 20-9 20-20.1-.1-11-9-20-20-20z"/><path d="M19.3 54.4c.1 4.1 3.5 7.4 7.7 7.4 4.2 0 7.6-3.3 7.7-7.4v-6.9h-15.4v6.9zM39.6 47.6c1.1-1.6 1.8-3.5 1.8-5.5 0-5.7-4.6-10.3-10.3-10.3s-10.3 4.6-10.3 10.3c0 2 .6 3.9 1.8 5.5H.8v10.3h10.8l-.1-10.4h15.2v10.4h12.1V47.6h-9.2z"/></svg>